<mxfile host="app.diagrams.net" modified="2023-08-03T05:30:18.018Z" agent="Mozilla/5.0 (Windows NT 10.0; Win64; x64) AppleWebKit/537.36 (KHTML, like Gecko) Chrome/112.0.0.0 Safari/537.36" version="21.6.6" etag="xuelMHk3aGKPVVNY2stG" type="github">
  <diagram name="第 1 页" id="5MKw44mCA4m0UBpPcv7b">
    <mxGraphModel>
      <root>
        <mxCell id="0" />
        <mxCell id="1" parent="0" />
      </root>
    </mxGraphModel>
  </diagram>
</mxfile>
